<svg id="Layer_1" data-name="Layer 1" xmlns="http://www.w3.org/2000/svg" viewBox="0 0 68 37.36">
    <defs>
        <style>.cls-1{fill:#fff;}</style>
    </defs>
    <title>Website Artwork</title>
    <path class="cls-1" d="M53.18,4098.56c0-3.81-3.18-4.07-3.18-4.07v-3.21s3.18-.26,3.18-4.15V4084c0-5.9,4.26-6.5,6.05-6.5,0.52,0,.86,0,0.86,0v2.77H59.57c-0.93,0-3.21.34-3.21,3.92v3.85a4.91,4.91,0,0,1-3,4.75v0.07a4.7,4.7,0,0,1,3,4.75v4.3c0,3.59,2.28,3.92,3.21,3.92h0.52v2.77a4.37,4.37,0,0,1-.86.07c-1.79,0-6.05-.6-6.05-6.54v-3.59Z" transform="translate(-50 -4077.48)"/>
    <path class="cls-1" d="M108.16,4105.85c0.93,0,3.21-.34,3.21-3.92v-4.3a4.7,4.7,0,0,1,3-4.75v-0.07a4.91,4.91,0,0,1-3-4.75v-3.85c0-3.59-2.28-3.92-3.21-3.92h-0.52v-2.77s0.34,0,.86,0c1.79,0,6.05.6,6.05,6.5v3.14c0,3.89,3.18,4.15,3.18,4.15v3.21s-3.18.26-3.18,4.07v3.59c0,5.94-4.26,6.54-6.05,6.54a4.37,4.37,0,0,1-.86-0.07v-2.77h0.52Z" transform="translate(-50 -4077.48)"/>
    <path class="cls-1" d="M93.36,4104.75H75.47a9.38,9.38,0,0,1-.84-18.72,8.21,8.21,0,0,1,14.78-.9,8.15,8.15,0,0,1,5.39,3.33A8.21,8.21,0,0,1,93.36,4104.75Zm-17.89-15.63a6.26,6.26,0,0,0,0,12.51H93.36a5.09,5.09,0,0,0,.4-10.16l-0.82-.06-0.41-.71a5.06,5.06,0,0,0-4.2-2.54l-1,0-0.38-.93a5.09,5.09,0,0,0-9.65.74l-0.3,1.24-1.28,0H75.47Z" transform="translate(-50 -4077.48)"/>
</svg>
